<?xml version="1.0" encoding="UTF-8" standalone="no"?>
<svg
   xmlns:dc="http://purl.org/dc/elements/1.1/"
   xmlns:cc="http://creativecommons.org/ns#"
   xmlns:rdf="http://www.w3.org/1999/02/22-rdf-syntax-ns#"
   xmlns:svg="http://www.w3.org/2000/svg"
   xmlns="http://www.w3.org/2000/svg"
   xmlns:sodipodi="http://sodipodi.sourceforge.net/DTD/sodipodi-0.dtd"
   xmlns:inkscape="http://www.inkscape.org/namespaces/inkscape"
   version="1.1"
   id="Capa_1"
   x="0px"
   y="0px"
   width="430.117px"
   height="430.118px"
   viewBox="0 0 430.117 430.118"
   style="enable-background:new 0 0 430.117 430.118;"
   xml:space="preserve"
   inkscape:version="0.91 r13725"
   sodipodi:docname="rss.svg"><sodipodi:namedview
     pagecolor="#ffffff"
     bordercolor="#666666"
     borderopacity="1"
     objecttolerance="10"
     gridtolerance="10"
     guidetolerance="10"
     inkscape:pageopacity="0"
     inkscape:pageshadow="2"
     inkscape:window-width="1360"
     inkscape:window-height="747"
     id="namedview22"
     showgrid="false"
     inkscape:zoom="0.54868662"
     inkscape:cx="-95.68354"
     inkscape:cy="215.05901"
     inkscape:window-x="0"
     inkscape:window-y="21"
     inkscape:window-maximized="1"
     inkscape:current-layer="Capa_1" /><metadata
     id="metadata40"><rdf:RDF><cc:Work
         rdf:about=""><dc:format>image/svg+xml</dc:format><dc:type
           rdf:resource="http://purl.org/dc/dcmitype/StillImage" /><dc:title /></cc:Work></rdf:RDF></metadata><defs
     id="defs38" /><g
     id="g3"
     transform="matrix(0.97518459,0,0,0.97518459,43.616738,-23.830512)"><path
       id="RSS"
       d="m 91.996498,336.14182 c 7.592959,7.58495 12.210392,17.87286 12.238812,29.32825 -0.0292,11.43207 -4.645853,21.72363 -12.21039,29.27433 l -0.02915,0.0139 c -7.577655,7.54414 -17.929702,12.15646 -29.440479,12.15646 -11.496201,0 -21.822013,-4.62617 -29.39821,-12.16957 -7.55725,-7.55142 -12.209659,-17.82987 -12.209659,-29.27506 0,-11.45539 4.652409,-21.76735 12.209659,-29.33481 l 0,0.007 c 7.57984,-7.54996 17.905653,-12.19581 29.39821,-12.19581 11.511506,0 21.85335,4.65897 29.441208,12.19581 z m 0,-0.007 0,0.007 c 0.01384,0 0.01384,0 0.01384,0 l -0.01384,-0.007 z M 33.15708,394.7578 c 0,0 0,0 0,-0.0139 -0.01384,0 -0.01384,0 -0.01384,0 l 0.01384,0.0139 z m -12.176135,-194.32188 0,59.8524 c 39.074696,0.0245 76.030156,15.37436 103.686625,43.0731 27.65137,27.61129 42.9364,64.62286 42.99907,103.83166 l 0.0204,0 0,0.10858 60.09872,0 C 227.7384,350.28853 204.56307,298.64417 167.09529,261.14942 129.62169,223.65978 77.998461,200.47206 20.980945,200.43636 Z m 0.109314,-106.587833 0,59.823253 C 160.76528,153.77381 274.3084,267.49255 274.40314,407.30094 l 59.99669,0 C 334.35902,320.89105 299.23858,242.60538 242.47978,185.80721 185.70056,129.02873 107.46663,93.885697 21.090259,93.848527 Z"
       style="fill:none;fill-opacity:0;stroke:#919191;stroke-width:11.55371005;stroke-linecap:round;stroke-linejoin:round;stroke-miterlimit:4;stroke-dasharray:none;stroke-opacity:1"
       inkscape:connector-curvature="0" /></g><g
     id="g6" /><g
     id="g8" /><g
     id="g10" /><g
     id="g12" /><g
     id="g14" /><g
     id="g16" /><g
     id="g18" /><g
     id="g20" /><g
     id="g22" /><g
     id="g24" /><g
     id="g26" /><g
     id="g28" /><g
     id="g30" /><g
     id="g32" /><g
     id="g34" /></svg>