<?xml version="1.0" encoding="UTF-8" standalone="no"?>
<svg
   xmlns:dc="http://purl.org/dc/elements/1.1/"
   xmlns:cc="http://creativecommons.org/ns#"
   xmlns:rdf="http://www.w3.org/1999/02/22-rdf-syntax-ns#"
   xmlns:svg="http://www.w3.org/2000/svg"
   xmlns="http://www.w3.org/2000/svg"
   xmlns:sodipodi="http://sodipodi.sourceforge.net/DTD/sodipodi-0.dtd"
   xmlns:inkscape="http://www.inkscape.org/namespaces/inkscape"
   xml:space="preserve"
   style="enable-background:new 0 0 430.117 430.117;"
   viewBox="0 0 430.117 430.117"
   height="430.117px"
   width="430.117px"
   y="0px"
   x="0px"
   id="Capa_1"
   version="1.1"
   inkscape:version="0.91 r13725"
   sodipodi:docname="twitter.svg"><sodipodi:namedview
     pagecolor="#ffffff"
     bordercolor="#666666"
     borderopacity="1"
     objecttolerance="10"
     gridtolerance="10"
     guidetolerance="10"
     inkscape:pageopacity="0"
     inkscape:pageshadow="2"
     inkscape:window-width="740"
     inkscape:window-height="480"
     id="namedview4698"
     showgrid="false"
     inkscape:zoom="0.54868791"
     inkscape:cx="-68.344865"
     inkscape:cy="196.8332"
     inkscape:window-x="0"
     inkscape:window-y="34"
     inkscape:window-maximized="0"
     inkscape:current-layer="Capa_1" /><metadata
     id="metadata40"><rdf:RDF><cc:Work
         rdf:about=""><dc:format>image/svg+xml</dc:format><dc:type
           rdf:resource="http://purl.org/dc/dcmitype/StillImage" /><dc:title /></cc:Work></rdf:RDF></metadata><defs
     id="defs38" /><g
     id="g3"
     style="stroke:#000000;stroke-opacity:1;fill:none"><path
       style="fill:none;fill-opacity:0;stroke:#919191;stroke-opacity:1;stroke-width:10;stroke-miterlimit:4;stroke-dasharray:none"
       d="M381.384,198.639c24.157-1.993,40.543-12.975,46.849-27.876   c-8.714,5.353-35.764,11.189-50.703,5.631c-0.732-3.51-1.55-6.844-2.353-9.854c-11.383-41.798-50.357-75.472-91.194-71.404   c3.304-1.334,6.655-2.576,9.996-3.691c4.495-1.61,30.868-5.901,26.715-15.21c-3.5-8.188-35.722,6.188-41.789,8.067   c8.009-3.012,21.254-8.193,22.673-17.396c-12.27,1.683-24.315,7.484-33.622,15.919c3.36-3.617,5.909-8.025,6.45-12.769   C241.68,90.963,222.563,133.113,207.092,174c-12.148-11.773-22.915-21.044-32.574-26.192   c-27.097-14.531-59.496-29.692-110.355-48.572c-1.561,16.827,8.322,39.201,36.8,54.08c-6.17-0.826-17.453,1.017-26.477,3.178   c3.675,19.277,15.677,35.159,48.169,42.839c-14.849,0.98-22.523,4.359-29.478,11.642c6.763,13.407,23.266,29.186,52.953,25.947   c-33.006,14.226-13.458,40.571,13.399,36.642C113.713,320.887,41.479,317.409,0,277.828   c108.299,147.572,343.716,87.274,378.799-54.866c26.285,0.224,41.737-9.105,51.318-19.39   C414.973,206.142,393.023,203.486,381.384,198.639z"
       id="Twitter__x28_alt_x29_" /></g><g
     id="g6" /><g
     id="g8" /><g
     id="g10" /><g
     id="g12" /><g
     id="g14" /><g
     id="g16" /><g
     id="g18" /><g
     id="g20" /><g
     id="g22" /><g
     id="g24" /><g
     id="g26" /><g
     id="g28" /><g
     id="g30" /><g
     id="g32" /><g
     id="g34" /></svg>